<?xml version="1.0" standalone="no"?>
<!DOCTYPE svg PUBLIC "-//W3C//DTD SVG 20010904//EN"
 "http://www.w3.org/TR/2001/REC-SVG-20010904/DTD/svg10.dtd">
<svg version="1.0" xmlns="http://www.w3.org/2000/svg"
 width="700.000000pt" height="700.000000pt" viewBox="0 0 700.000000 700.000000"
 preserveAspectRatio="xMidYMid meet">
<metadata>
Created by potrace 1.11, written by Peter Selinger 2001-2013
</metadata>
<g transform="translate(0.000000,700.000000) scale(0.100000,-0.100000)"
fill="#000000" stroke="none">
<path d="M3890 6679 c-125 -34 -315 -122 -448 -206 -29 -18 -56 -33 -61 -33
-5 0 -11 -3 -13 -7 -1 -5 -37 -30 -78 -58 -96 -65 -294 -223 -390 -311 -431
-398 -719 -831 -854 -1284 -45 -151 -62 -247 -72 -415 -4 -55 -7 -101 -8 -102
-1 -1 -154 -3 -341 -5 l-340 -3 -57 -28 c-72 -35 -130 -100 -152 -169 -24 -78
-24 -568 0 -645 28 -89 115 -172 200 -190 26 -5 -61 -10 -251 -14 -279 -6
-293 -7 -380 -33 -323 -99 -560 -357 -631 -686 -4 -19 -9 -298 -11 -620 l-3
-585 24 -50 c70 -151 264 -187 380 -71 74 73 73 63 73 666 1 442 4 545 16 593
45 171 195 296 367 306 30 2 197 4 372 5 l316 1 -1 -970 c0 -761 2 -982 12
-1025 48 -204 212 -374 412 -427 59 -15 216 -17 2039 -17 1086 0 1995 3 2021
6 216 29 408 204 464 423 13 51 15 220 15 1271 l0 1212 133 4 c118 3 138 6
187 30 68 33 117 85 147 157 22 55 23 64 20 351 -2 287 -3 296 -25 339 -35 65
-79 108 -141 139 l-56 27 -340 3 c-187 2 -340 4 -341 5 -1 1 -4 47 -8 102 -3
55 -8 109 -10 120 -2 11 -7 43 -10 70 -31 218 -144 515 -292 765 -61 103 -193
296 -231 335 -10 11 -43 49 -72 85 -289 351 -767 723 -1131 878 -195 82 -312
98 -450 61z"/>
</g>
</svg>
